<svg width="0" height="0">
    <symbol xmlns="http://www.w3.org/2000/svg" id="error" fill="#fff" viewBox="0 0 511.76 511.76">
        <path d="M436.896 74.869c-99.84-99.819-262.208-99.819-362.048 0-99.797 99.819-99.797 262.229 0 362.048 49.92 49.899 115.477 74.837 181.035 74.837s131.093-24.939 181.013-74.837c99.819-99.818 99.819-262.229 0-362.048zm-75.435 256.448c8.341 8.341 8.341 21.824 0 30.165a21.275 21.275 0 0 1-15.083 6.251 21.277 21.277 0 0 1-15.083-6.251l-75.413-75.435-75.392 75.413a21.348 21.348 0 0 1-15.083 6.251 21.277 21.277 0 0 1-15.083-6.251c-8.341-8.341-8.341-21.845 0-30.165l75.392-75.413-75.413-75.413c-8.341-8.341-8.341-21.845 0-30.165 8.32-8.341 21.824-8.341 30.165 0l75.413 75.413 75.413-75.413c8.341-8.341 21.824-8.341 30.165 0 8.341 8.32 8.341 21.824 0 30.165l-75.413 75.413 75.415 75.435z"/>
    </symbol>
    <symbol xmlns="http://www.w3.org/2000/svg" id="info" fill="#fff" viewBox="0 0 512 512">
        <path d="M256 0C114.509 0 0 114.496 0 256c0 141.489 114.496 256 256 256 141.491 0 256-114.496 256-256C512 114.511 397.504 0 256 0zm26.289 357.621c0 8.088-11.794 16.174-26.284 16.174-15.164 0-25.946-8.086-25.946-16.174V229.234c0-9.435 10.783-15.839 25.946-15.839 14.49 0 26.284 6.404 26.284 15.839v128.387zm-26.283-175.225c-15.501 0-27.631-11.457-27.631-24.263 0-12.805 12.131-23.925 27.631-23.925 15.164 0 27.296 11.12 27.296 23.925 0 12.806-12.133 24.263-27.296 24.263z"/>
    </symbol>
    <symbol xmlns="http://www.w3.org/2000/svg" id="success" fill="#fff" viewBox="0 0 6.35 6.35">
        <path d="M3.181.264A2.92 2.92 0 0 0 .264 3.18a2.922 2.922 0 0 0 2.917 2.917A2.92 2.92 0 0 0 6.096 3.18 2.919 2.919 0 0 0 3.18.264zM4.368 2.12a.265.265 0 0 1 .192.454l-1.59 1.59a.265.265 0 0 1-.374 0L1.8 3.37a.266.266 0 1 1 .375-.376l.606.609L4.184 2.2a.265.265 0 0 1 .184-.08z"/>
    </symbol>
    <symbol xmlns="http://www.w3.org/2000/svg" id="warning" fill="#fff" viewBox="0 0 32 32">
        <path d="M16 3a13 13 0 1 0 13 13A13 13 0 0 0 16 3zm-1 7a1 1 0 0 1 2 0v6a1 1 0 0 1-2 0zm1 12.5a1.5 1.5 0 1 1 1.5-1.5 1.5 1.5 0 0 1-1.5 1.5z"/>
    </symbol>
    <symbol xmlns="http://www.w3.org/2000/svg" id="check" fill="none" viewBox="0 0 10 8">
        <path d="M1 3.88314L3 6L9 1" stroke="white" stroke-width="2" stroke-linecap="round"/>
    </symbol>
    <symbol id='pencil' viewBox='0 0 24 24' xmlns='http://www.w3.org/2000/svg'>
        <path d="M1.172 19.119A4 4 0 0 0 0 21.947V24h2.053a4 4 0 0 0 2.828-1.172L18.224 9.485l-3.709-3.709ZM23.145.855a2.622 2.622 0 0 0-3.71 0l-3.506 3.507 3.709 3.709 3.507-3.506a2.622 2.622 0 0 0 0-3.71Z"/>
    </symbol>
    <symbol id='delete' viewBox='0 0 512 512' xmlns='http://www.w3.org/2000/svg'>
        <path d="M448 85.333h-66.133C371.66 35.703 328.002.064 277.333 0h-42.667c-50.669.064-94.327 35.703-104.533 85.333H64c-11.782 0-21.333 9.551-21.333 21.333S52.218 128 64 128h21.333v277.333C85.404 464.214 133.119 511.93 192 512h128c58.881-.07 106.596-47.786 106.667-106.667V128H448c11.782 0 21.333-9.551 21.333-21.333S459.782 85.333 448 85.333zM234.667 362.667c0 11.782-9.551 21.333-21.333 21.333-11.783 0-21.334-9.551-21.334-21.333v-128c0-11.782 9.551-21.333 21.333-21.333 11.782 0 21.333 9.551 21.333 21.333v128zm85.333 0c0 11.782-9.551 21.333-21.333 21.333-11.782 0-21.333-9.551-21.333-21.333v-128c0-11.782 9.551-21.333 21.333-21.333 11.782 0 21.333 9.551 21.333 21.333v128zM174.315 85.333c9.074-25.551 33.238-42.634 60.352-42.667h42.667c27.114.033 51.278 17.116 60.352 42.667H174.315z"/>
    </symbol>
</svg>